name Walk4.mot
datacolumns 19
datarows 15
range 2.07500000 2.14500000
endheader

                time	   L_ground_force_vx	   L_ground_force_vy	   L_ground_force_vz	   L_ground_force_px	   L_ground_force_py	   L_ground_force_pz	   R_ground_force_vx	   R_ground_force_vy	   R_ground_force_vz	   R_ground_force_px	   R_ground_force_py	   R_ground_force_pz	   L_ground_torque_x	   L_ground_torque_y	   L_ground_torque_z	   R_ground_torque_x	   R_ground_torque_y	   R_ground_torque_z	
          2.07500000	          0.13612161	          0.37499259	         -0.00856357	         -0.00007855	          0.00000000	          0.00012185	        -17.94642367	        626.55728620	        -51.96348273	          0.19306006	          0.00000000	          0.04721432	          0.00000000	          0.00067305	          0.00000000	          0.00000000	          6.47919934	          0.00000000	
          2.08000000	          0.11426817	          0.33047497	         -0.00983413	         -0.00016141	          0.00000000	          0.00000842	        -16.66168336	        621.03424123	        -51.46833521	          0.19560684	          0.00000000	          0.04735776	          0.00000000	          0.00054573	          0.00000000	          0.00000000	          6.27627448	          0.00000000	
          2.08500000	          0.09121675	          0.27579011	         -0.00987116	         -0.00020178	          0.00000000	         -0.00006499	        -15.42882648	        617.05831723	        -50.98682553	          0.19807623	          0.00000000	          0.04748495	          0.00000000	          0.00042092	          0.00000000	          0.00000000	          6.07199760	          0.00000000	
          2.09000000	          0.06922018	          0.21891010	         -0.00911421	         -0.00021172	          0.00000000	         -0.00010693	        -14.22835860	        614.49810329	        -50.53555598	          0.20047225	          0.00000000	          0.04759763	          0.00000000	          0.00030759	          0.00000000	          0.00000000	          5.86522916	          0.00000000	
          2.09500000	          0.04963972	          0.16512092	         -0.00790797	         -0.00020134	          0.00000000	         -0.00012536	        -13.04515105	        613.19451292	        -50.12626638	          0.20280351	          0.00000000	          0.04769822	          0.00000000	          0.00021059	          0.00000000	          0.00000000	          5.65515561	          0.00000000	
          2.10000000	          0.03315726	          0.11756788	         -0.00650901	         -0.00017877	          0.00000000	         -0.00012727	        -11.86819899	        612.97425115	        -49.76420908	          0.20507922	          0.00000000	          0.04778855	          0.00000000	          0.00013173	          0.00000000	          0.00000000	          5.44143766	          0.00000000	
          2.10500000	          0.01996503	          0.07777485	         -0.00509710	         -0.00015015	          0.00000000	         -0.00011843	        -10.69039995	        613.66466688	        -49.44838340	          0.20730764	          0.00000000	          0.04787029	          0.00000000	          0.00007074	          0.00000000	          0.00000000	          5.22437519	          0.00000000	
          2.11000000	          0.00992612	          0.04610529	         -0.00378855	         -0.00011992	          0.00000000	         -0.00010339	         -9.50854083	        615.10734299	        -49.17244552	          0.20949634	          0.00000000	          0.04794488	          0.00000000	          0.00002604	          0.00000000	          0.00000000	          5.00450656	          0.00000000	
          2.11500000	          0.00270332	          0.02214985	         -0.00264977	         -0.00009105	          0.00000000	         -0.00008557	         -8.32277653	        617.16992654	        -48.92545793	          0.21165385	          0.00000000	          0.04801384	          0.00000000	         -0.00000469	          0.00000000	          0.00000000	          4.78198851	          0.00000000	
          2.12000000	         -0.00214231	          0.00503590	         -0.00170993	         -0.00006534	          0.00000000	         -0.00006738	         -7.13515529	        619.74882421	        -48.69478093	          0.21378772	          0.00000000	          0.04807818	          0.00000000	         -0.00002403	          0.00000000	          0.00000000	          4.55679644	          0.00000000	
          2.12500000	         -0.00508030	         -0.00633722	         -0.00097200	         -0.00004368	          0.00000000	         -0.00005038	         -5.94739482	        622.76747476	        -48.46951840	          0.21590303	          0.00000000	          0.04813800	          0.00000000	         -0.00003453	          0.00000000	          0.00000000	          4.32912278	          0.00000000	
          2.13000000	         -0.00656258	         -0.01312938	         -0.00042190	         -0.00002634	          0.00000000	         -0.00003550	         -4.75935813	        626.17493859	        -48.24310318	          0.21800310	          0.00000000	          0.04819333	          0.00000000	         -0.00003853	          0.00000000	          0.00000000	          4.09970534	          0.00000000	
          2.13500000	         -0.00699412	         -0.01644669	         -0.00003576	         -0.00001314	          0.00000000	         -0.00002314	         -3.56877810	        629.94338045	        -48.01366315	          0.22009002	          0.00000000	          0.04824483	          0.00000000	         -0.00003805	          0.00000000	          0.00000000	          3.86924356	          0.00000000	
          2.14000000	         -0.00671770	         -0.01727328	          0.00021468	         -0.00000363	          0.00000000	         -0.00001339	         -2.37074366	        634.06182585	        -47.78339567	          0.22216233	          0.00000000	          0.04829262	          0.00000000	         -0.00003473	          0.00000000	          0.00000000	          3.63759363	          0.00000000	
          2.14500000	         -0.00600916	         -0.01643725	          0.00035831	          0.00000276	          0.00000000	         -0.00000608	         -1.15706468	        638.53133598	        -47.55682117	          0.22421422	          0.00000000	          0.04833558	          0.00000000	         -0.00002986	          0.00000000	          0.00000000	          3.40355246	          0.00000000	
